HIERARCHY
ROOT Hips
{
	OFFSET 0.000000 0.000000 0.000000
	CHANNELS 6 Xposition Yposition Zposition Zrotation Yrotation Xrotation 
	JOINT LHipJoint
	{
		OFFSET 0.000000 0.000000 0.000000
		CHANNELS 3 Zrotation Yrotation Xrotation
		JOINT LeftUpLeg
		{
			OFFSET 1.363060 -1.794630 0.839290
			CHANNELS 3 Zrotation Yrotation Xrotation
			JOINT LeftLeg
			{
				OFFSET 2.448110 -6.726130 0.000000
				CHANNELS 3 Zrotation Yrotation Xrotation
				JOINT LeftFoot
				{
					OFFSET 2.562200 -7.039590 0.000000
					CHANNELS 3 Zrotation Yrotation Xrotation
					JOINT LeftToeBase
					{
						OFFSET 0.157640 -0.433110 2.322550
						CHANNELS 3 Zrotation Yrotation Xrotation
						End Site
						{
							OFFSET 0.000000 0.000000 0.000000
						}
					}
				}
			}
		}
	}
	JOINT RHipJoint
	{
		OFFSET 0.000000 0.000000 0.000000
		CHANNELS 3 Zrotation Yrotation Xrotation
		JOINT RightUpLeg
		{
			OFFSET -1.305520 -1.794630 0.839290
			CHANNELS 3 Zrotation Yrotation Xrotation
			JOINT RightLeg
			{
				OFFSET -2.542530 -6.985550 0.000000
				CHANNELS 3 Zrotation Yrotation Xrotation
				JOINT RightFoot
				{
					OFFSET -2.568260 -7.056230 0.000000
					CHANNELS 3 Zrotation Yrotation Xrotation
					JOINT RightToeBase
					{
						OFFSET -0.164730 -0.452590 2.363150
						CHANNELS 3 Zrotation Yrotation Xrotation
						End Site
						{
							OFFSET 0.000000 0.000000 0.000000
						}
					}
				}
			}
		}
	}
	JOINT LowerBack
	{
		OFFSET 0.000000 0.000000 0.000000
		CHANNELS 3 Zrotation Yrotation Xrotation
		JOINT Spine
		{
			OFFSET 0.028270 2.035590 -0.193380
			CHANNELS 3 Zrotation Yrotation Xrotation
			JOINT Spine1
			{
				OFFSET 0.056720 2.048850 -0.042750
				CHANNELS 3 Zrotation Yrotation Xrotation
				JOINT Neck
				{
					OFFSET 0.000000 0.000000 0.000000
					CHANNELS 3 Zrotation Yrotation Xrotation
					JOINT Neck1
					{
						OFFSET -0.054170 1.746240 0.172020
						CHANNELS 3 Zrotation Yrotation Xrotation
						JOINT Head
						{
							OFFSET 0.104070 1.761360 -0.123970
							CHANNELS 3 Zrotation Yrotation Xrotation
							End Site
							{
								OFFSET 0.000000 0.000000 0.000000
							}
						}
					}
				}
				JOINT LeftShoulder
				{
					OFFSET 0.000000 0.000000 0.000000
					CHANNELS 3 Zrotation Yrotation Xrotation
					JOINT LeftArm
					{
						OFFSET 3.362410 1.200890 -0.311210
						CHANNELS 3 Zrotation Yrotation Xrotation
						JOINT LeftForeArm
						{
							OFFSET 4.983000 -0.000000 -0.000000
							CHANNELS 3 Zrotation Yrotation Xrotation
							JOINT LeftHand
							{
								OFFSET 3.483560 -0.000000 -0.000000
								CHANNELS 3 Zrotation Yrotation Xrotation
								JOINT LeftFingerBase
								{
									OFFSET 0.000000 0.000000 0.000000
									CHANNELS 3 Zrotation Yrotation Xrotation
									JOINT LeftHandIndex1
									{
										OFFSET 0.715260 -0.000000 -0.000000
										CHANNELS 3 Zrotation Yrotation Xrotation
										End Site
										{
											OFFSET 0.000000 0.000000 0.000000
										}
									}
								}
								JOINT LThumb
								{
									OFFSET 0.000000 0.000000 0.000000
									CHANNELS 3 Zrotation Yrotation Xrotation
									End Site
									{
										OFFSET 0.000000 0.000000 0.000000
									}
								}
							}
						}
					}
				}
				JOINT RightShoulder
				{
					OFFSET 0.000000 0.000000 0.000000
					CHANNELS 3 Zrotation Yrotation Xrotation
					JOINT RightArm
					{
						OFFSET -3.136600 1.374050 -0.404650
						CHANNELS 3 Zrotation Yrotation Xrotation
						JOINT RightForeArm
						{
							OFFSET -5.241900 -0.000000 -0.000000
							CHANNELS 3 Zrotation Yrotation Xrotation
							JOINT RightHand
							{
								OFFSET -3.444170 -0.000000 -0.000000
								CHANNELS 3 Zrotation Yrotation Xrotation
								JOINT RightFingerBase
								{
									OFFSET 0.000000 0.000000 0.000000
									CHANNELS 3 Zrotation Yrotation Xrotation
									JOINT RightHandIndex1
									{
										OFFSET -0.622530 -0.000000 -0.000000
										CHANNELS 3 Zrotation Yrotation Xrotation
										End Site
										{
											OFFSET 0.000000 0.000000 0.000000
										}
									}
								}
								JOINT RThumb
								{
									OFFSET 0.000000 0.000000 0.000000
									CHANNELS 3 Zrotation Yrotation Xrotation
									End Site
									{
										OFFSET 0.000000 0.000000 0.000000
									}
								}
							}
						}
					}
				}
			}
		}
	}
}
MOTION
Frames: 7
Frame Time: 0.008333
-1.787301 18.605882 8.380736 -3.333611 19.845870 9.891258 6.433466 4.090180 -1.591204 -15.083326 -31.501912 3.366827 -2.635788 0.403046 3.053369 -6.283258 23.355644 5.157102 1.065300 -6.561900 -18.423700 -1.557718 -5.066624 0.926826 27.359986 23.436242 7.727583 4.084407 0.955090 0.387569 10.058053 -32.017841 -17.970091 -1.572900 -7.913200 22.450600 4.637541 8.208163 12.888733 4.310418 12.362052 -21.214337 -12.885463 4.177386 -15.090771 -21.473402 -15.000337 -15.361247 16.372565 -20.557532 28.491812 2.195700 -8.549200 8.991200 -5.175846 -7.375403 2.095204 -77.777101 26.590189 -8.286953 47.490191 -46.762225 -27.377045 -1.037491 -0.873435 -14.592749 26.107694 -10.410576 -4.960000 -7.125000 0.000000 0.000000 0.254500 19.127600 -0.157100 12.236670 10.272513 1.805586 37.888901 51.665395 -22.023158 -9.289666 9.974633 -2.308170 2.772009 1.157634 31.806194 5.207870 -32.292801 -2.013000 7.125000 0.000000 0.000000 41.698100 -59.678500 -16.674000 
-1.816801 18.605777 8.414750 -2.984370 20.465130 9.978749 6.384146 4.093687 -1.600172 -15.335612 -31.750899 3.334941 -2.623786 0.464323 3.182489 -6.170138 23.044537 5.213281 1.001500 -6.368500 -17.857300 -1.630490 -5.041392 0.903136 27.267852 23.197487 7.835584 4.104578 1.000799 0.340095 10.086281 -32.170908 -18.532265 -1.662200 -8.123900 23.090900 4.688346 8.147970 12.725469 3.455909 12.145509 -21.300328 -12.537290 4.234873 -14.923228 -21.646489 -15.156527 -15.306695 16.794696 -20.974757 29.213870 2.243000 -8.671300 9.216700 -5.129855 -7.345958 2.029511 -77.876629 26.713949 -9.570414 46.029361 -46.114759 -26.050364 -1.079263 -0.790397 -14.558566 26.426049 -11.268998 -5.514300 -7.125000 0.000000 0.000000 0.428000 18.038800 -0.274500 12.489277 10.138253 1.974944 38.259254 51.134047 -23.721699 -9.130186 9.786900 -2.240198 2.737547 1.123857 32.904070 5.792785 -31.611844 -2.338200 7.125000 0.000000 0.000000 41.552600 -59.008000 -15.919100 
-1.846090 18.604727 8.447504 -2.777395 21.076038 10.019302 6.349737 4.095059 -1.606260 -15.400621 -31.818271 3.204547 -2.609110 0.513439 3.280269 -6.025405 22.661584 5.461766 0.989700 -6.331700 -17.750000 -1.679993 -5.016700 0.882409 27.339544 23.057079 7.970544 4.124458 1.026801 0.343238 10.092045 -32.305312 -19.196953 -1.784600 -8.402300 23.942900 4.764729 8.114787 12.526701 2.812913 11.998894 -21.378626 -12.290535 4.292358 -14.679849 -21.929326 -15.359410 -15.244916 17.295825 -21.453363 29.869943 2.308400 -8.818000 9.457300 -5.104604 -7.315314 1.962082 -77.898182 26.795140 -10.538058 44.534144 -45.407653 -24.706453 -1.133764 -0.719752 -14.570806 27.046096 -11.857019 -6.014600 -7.125000 0.000000 0.000000 0.835500 17.223400 -0.550700 12.730391 10.019710 2.139925 38.595665 50.396585 -24.407721 -9.010816 9.694658 -2.178455 2.675867 1.141443 33.372879 6.407493 -30.978954 -2.684300 7.125000 0.000000 0.000000 41.535400 -58.369000 -15.253600 
-1.874225 18.599583 8.482147 -3.049021 21.701705 9.743631 6.428420 4.104884 -1.617739 -15.156290 -31.887046 3.285758 -2.598948 0.518751 3.320183 -5.956492 22.446416 5.675166 1.011400 -6.398700 -17.945800 -1.611697 -5.019361 0.916964 27.848638 22.869536 8.180684 4.132663 1.014690 0.426784 10.098520 -32.472353 -19.737393 -1.833400 -8.510000 24.274100 4.629111 8.167164 12.294116 3.567136 12.174072 -21.388552 -12.486153 4.296239 -14.281149 -22.361255 -15.528180 -15.063319 17.622893 -21.807922 30.345008 2.367100 -8.940000 9.636700 -5.225415 -7.251925 1.898357 -77.972186 26.895950 -11.354893 43.040632 -44.650407 -23.390299 -1.164151 -0.682063 -14.950064 27.231438 -12.000549 -6.169800 -7.125000 0.000000 0.000000 0.963700 16.978800 -0.640400 12.779807 9.988886 2.348135 38.974166 49.722195 -25.242950 -8.881407 9.551798 -2.116344 2.639578 1.103062 34.388150 6.718374 -30.408317 -2.838500 7.125000 0.000000 0.000000 41.265800 -57.835100 -14.580700 
-1.901730 18.590975 8.515846 -3.467702 22.285344 9.324145 6.547030 4.121182 -1.626594 -14.850946 -31.888352 3.464997 -2.593808 0.503452 3.337665 -5.923218 22.291514 5.771498 1.010600 -6.396300 -17.938800 -1.511490 -5.034910 0.973466 28.490958 22.585388 8.423773 4.133095 0.996798 0.516978 10.138571 -32.704528 -20.079097 -1.825000 -8.491600 24.217300 4.363569 8.245679 12.086191 4.805074 12.448302 -21.331832 -12.797183 4.275936 -13.892865 -22.687590 -15.630376 -14.847823 17.771093 -22.041777 30.755285 2.395100 -9.024500 9.763500 -5.401813 -7.174461 1.833355 -78.050224 27.019863 -11.658279 41.588226 -43.863926 -22.116906 -1.210610 -0.685972 -13.903809 28.094579 -10.772853 -5.720400 -7.125000 0.000000 0.000000 1.697400 18.281600 -1.079700 12.739862 9.975470 2.578435 39.485719 49.206802 -26.850142 -8.771686 9.378502 -2.071552 2.640310 1.002440 36.129142 6.800424 -30.057154 -2.859300 7.125000 0.000000 0.000000 40.969700 -57.517800 -14.124200 
-1.926401 18.582366 8.546081 -3.600727 22.753146 9.033282 6.576416 4.143751 -1.609031 -14.778365 -31.845838 3.606605 -2.588828 0.508037 3.382489 -5.875322 22.117417 5.818554 1.004900 -6.378700 -17.887200 -1.507853 -5.037644 1.010348 28.867363 22.215416 8.609738 4.133818 0.993277 0.594623 10.139461 -32.790081 -20.330183 -1.833700 -8.510800 24.276600 4.323835 8.252145 11.841609 5.045575 12.485539 -21.076885 -12.805498 4.280902 -13.655963 -22.702157 -15.749514 -14.819642 17.746416 -22.279811 31.232371 2.342200 -9.114200 9.875400 -5.528971 -7.112269 1.762987 -77.736014 26.996093 -12.107111 39.712291 -42.836920 -20.548971 -1.249154 -0.517499 -13.001835 28.128346 -12.359359 -6.677600 -7.125000 0.000000 0.000000 1.563700 16.308200 -1.062100 12.838988 9.879529 2.740492 40.070393 48.765293 -28.723711 -8.677632 9.224817 -2.042682 2.654091 0.887944 37.790871 6.673481 -29.950118 -2.771800 7.125000 0.000000 0.000000 40.696300 -57.434600 -13.921900 
-1.947082 18.573968 8.572116 -3.603926 23.145318 8.885741 6.581616 4.157644 -1.601052 -14.828765 -31.940571 3.727855 -2.585021 0.530422 3.456226 -5.864664 22.050390 5.718312 1.004200 -6.376700 -17.881500 -1.521267 -5.027552 1.024845 29.033390 21.855998 8.653591 4.133019 0.980400 0.680607 10.112777 -32.771259 -20.501475 -1.856100 -8.559800 24.427700 4.341465 8.238040 11.591848 4.984136 12.454289 -20.920886 -12.706327 4.298877 -13.423065 -22.424900 -15.809180 -14.867068 17.436307 -22.376246 31.697552 2.212300 -9.157000 9.937100 -5.657716 -7.053450 1.710755 -77.318760 26.885940 -12.735408 37.579534 -41.586743 -18.809342 -1.277004 -0.332191 -11.863489 28.003459 -13.921968 -7.569500 -7.125000 0.000000 0.000000 1.301600 14.377900 -0.937900 12.964850 9.767290 2.898116 40.693345 48.311788 -30.186982 -8.611816 9.119214 -2.022522 2.660783 0.795667 38.903189 6.428321 -29.924442 -2.624500 7.125000 0.000000 0.000000 40.387400 -57.439500 -13.795900 
